# xmcd
#
# Track frame offsets:
#	150
#	12905
#	25044
#	36127
#	45907
#	57457
#	69930
#	81954
#	94227
#	108635
#	119250
#	129472
#	142600
#	156010
#	170072
#	182177
#
# Disc length: 2566 seconds
#
# Revision: 2
# Processed by: cddbd v1.5.2PL0 Copyright (c) Steve Scherf et al.
# Submitted via: audiograbber 1.83.01
#
DISCID=cd0a0410
DTITLE=MH1063 Monster Hits - Male Country Hits (MH)
DYEAR=2008
DGENRE=Karaoke
TTITLE0=Red Foley - Chattanoogie Shoe Shine Boy (MH)
TTITLE1=Tennessee Ernie Ford - The Shot Gun Boogie (MH)
TTITLE2=Ferlin Husky - Wings Of A Dove (MH)
TTITLE3=Roger Miller - Chug-A-Lug (MH)
TTITLE4=Stonewall Jackson - Waterloo (MH)
TTITLE5=Johnny Cash - Ring Of Fire (MH)
TTITLE6=Johnny Horton - The Battle Of New Orleans (MH)
TTITLE7=Hank Williams - Take These Chains From My Heart (MH)
TTITLE8=Lefty Frizzell - Always Late (With Your Kisses) (MH)
TTITLE9=Dave Dudley - Six Days On The Road (MH)
TTITLE10=George Jones - The Race Is On (MH)
TTITLE11=Jim Reeves - Four Walls (MH)
TTITLE12=Bobby Bare - Detroit City (MH)
TTITLE13=Hank Snow - I'm Moving On (MH)
TTITLE14=Don Gibson - Oh Lonesome Me (MH)
TTITLE15=Eddy Arnold - What's He Doing In My World (MH)
EXTD=
EXTT0=
EXTT1=
EXTT2=
EXTT3=
EXTT4=
EXTT5=
EXTT6=
EXTT7=
EXTT8=
EXTT9=
EXTT10=
EXTT11=
EXTT12=
EXTT13=
EXTT14=
EXTT15=
PLAYORDER=
